<svg xmlns="http://www.w3.org/2000/svg" viewBox="0 0 500 500"><title>Frost</title><g id="Слой_2" data-name="Слой 2"><g id="Слой_1-2" data-name="Слой 1"><polygon points="500 242.5 458.74 242.5 490.18 211.06 476.04 196.91 430.45 242.5 296.5 242.5 296.1 242.5 268.11 242.5 287.84 222.76 287.84 222.76 288.23 222.37 288.8 221.8 288.8 221.8 382.9 127.7 447.37 127.7 447.37 107.7 402.9 107.7 432.08 78.53 421.47 67.92 392.3 97.1 392.3 52.63 372.3 52.63 372.3 117.1 277.63 211.77 257.5 231.89 257.5 203.91 257.5 201.5 257.5 69.55 303.09 23.96 288.94 9.82 257.5 41.27 257.5 0 242.5 0 242.5 41.27 211.06 9.82 196.91 23.96 242.5 69.55 242.5 201.5 242.5 203.91 242.5 231.89 127.7 117.1 127.7 52.63 107.7 52.63 107.7 97.1 78.53 67.92 67.92 78.53 97.1 107.7 52.63 107.7 52.63 127.7 117.1 127.7 231.89 242.5 69.55 242.5 23.96 196.91 9.82 211.06 41.27 242.5 0 242.5 0 257.5 41.27 257.5 9.82 288.94 23.96 303.09 69.55 257.5 231.89 257.5 117.1 372.3 52.63 372.3 52.63 392.3 97.1 392.3 67.92 421.47 78.53 432.08 107.7 402.9 107.7 447.37 127.7 447.37 127.7 382.9 242.5 268.11 242.5 430.45 196.91 476.04 211.06 490.18 242.5 458.74 242.5 500 257.5 500 257.5 458.74 288.94 490.18 303.09 476.04 257.5 430.45 257.5 268.11 277.78 288.38 277.78 288.38 372.3 382.9 372.3 447.37 392.3 447.37 392.3 402.9 421.47 432.08 432.08 421.47 402.9 392.3 447.37 392.3 447.37 372.3 382.9 372.3 288.38 277.78 288.38 277.78 268.11 257.5 296.1 257.5 296.5 257.5 430.45 257.5 476.04 303.09 490.18 288.94 458.74 257.5 500 257.5 500 242.5"/></g></g></svg>