<svg xmlns="http://www.w3.org/2000/svg" viewBox="0 0 376 462.18"><defs><style>.cls-1{fill:#ebeef0;}.cls-2{fill:#aac8dc;}</style></defs><title>bell</title><g id="Слой_2" data-name="Слой 2"><g id="notificaton"><g id="notifications"><path class="cls-1" d="M188,442.35a44.37,44.37,0,0,0,44.24-44.24H143.76A44.37,44.37,0,0,0,188,442.35ZM331.76,309.65V188c0-68.56-46.45-123.86-110.59-139.34V33.18C221.18,15.48,205.69,0,188,0s-33.18,15.48-33.18,33.18V48.66C90.68,64.14,44.24,119.44,44.24,188V309.65L0,353.88V376H376V353.88Z"/></g><polygon class="cls-2" points="345 376.18 330 462.18 315 376.18 345 376.18"/><polygon class="cls-2" points="114 374.02 99.5 421.68 84 374.33 114 374.02"/><polygon class="cls-2" points="76 374.18 68.5 460.18 61 374.18 76 374.18"/></g></g></svg>