<svg xmlns="http://www.w3.org/2000/svg" viewBox="0 0 473.99 474"><defs><style>.cls-1{fill:#ebeef0;}.cls-2{fill:#aac8dc;}.cls-3{fill:#5c6576;}</style></defs><title>gear</title><g id="Слой_2" data-name="Слой 2"><g id="gear"><line class="cls-1" x1="212.49" y1="117" x2="212.49" y2="187"/><polygon class="cls-2" points="219.99 117 212.49 187 204.99 117 219.99 117"/><line class="cls-1" x1="449.49" y1="274" x2="449.49" y2="344"/><polygon class="cls-2" points="464.49 274 449.49 344 434.49 274 464.49 274"/><line class="cls-1" x1="18.49" y1="274" x2="18.49" y2="377.5"/><polygon class="cls-2" points="25.99 274 18.49 377.5 10.99 274 25.99 274"/><line class="cls-1" x1="138.49" y1="402" x2="138.49" y2="453.5"/><polygon class="cls-2" points="145.99 402 138.49 453.5 130.99 402 145.99 402"/><line class="cls-1" x1="319.49" y1="142" x2="319.49" y2="245.5"/><polygon class="cls-2" points="326.99 142 319.49 245.5 311.99 142 326.99 142"/><path class="cls-3" d="M472.51,210.68C471.76,204,464,199,457.27,199a52.33,52.33,0,0,1-35.82-91.08,13.16,13.16,0,0,0,1.44-17.87,234.52,234.52,0,0,0-37.55-37.92,13.19,13.19,0,0,0-18,1.45c-14.13,15.65-39.5,21.46-59.11,13.28a52.64,52.64,0,0,1-32-51.46A13.15,13.15,0,0,0,264.58,1.58a236.61,236.61,0,0,0-53.32-.14A13.19,13.19,0,0,0,199.52,15a52.73,52.73,0,0,1-32.45,50.57c-19.37,7.91-44.57,2.15-58.67-13.36a13.22,13.22,0,0,0-17.88-1.5A235.41,235.41,0,0,0,52.18,88.61a13.18,13.18,0,0,0,1.41,18,52.52,52.52,0,0,1,13.25,59.13c-8.18,19.48-28.41,32-51.57,32A12.88,12.88,0,0,0,1.59,209.43a237.42,237.42,0,0,0-.1,53.9C2.23,270,10.23,275,17,275c20.64-.53,40.45,12.25,48.76,32.48a52.7,52.7,0,0,1-13.25,58.61,13.17,13.17,0,0,0-1.44,17.86,235.37,235.37,0,0,0,37.49,37.93,13.18,13.18,0,0,0,18-1.43c14.18-15.68,39.55-21.49,59.08-13.29a52.56,52.56,0,0,1,32.06,51.44,13.16,13.16,0,0,0,11.63,13.84,235.88,235.88,0,0,0,53.32.14A13.19,13.19,0,0,0,274.46,459a52.68,52.68,0,0,1,32.43-50.54c19.5-8,44.59-2.14,58.7,13.35a13.24,13.24,0,0,0,17.89,1.5,236,236,0,0,0,38.34-37.91,13.16,13.16,0,0,0-1.42-18,52.52,52.52,0,0,1-13.28-59.12,53.06,53.06,0,0,1,48.48-32.13l2.93.08a13.19,13.19,0,0,0,13.87-11.62A237.21,237.21,0,0,0,472.51,210.68ZM237.37,357.88A120.38,120.38,0,1,1,357.74,237.5,120.51,120.51,0,0,1,237.37,357.88Z"/></g></g></svg>