<svg xmlns="http://www.w3.org/2000/svg" viewBox="0 0 372.29 372.54"><defs><style>.cls-1{fill:#ebeef0;}.cls-2{fill:#aac8dc;}.cls-3{fill:#ededed;}</style></defs><title>Plus</title><g id="Слой_2" data-name="Слой 2"><g id="Слой_3" data-name="Слой 3"><line class="cls-1" x1="336.27" y1="197.4" x2="342.77" y2="301.9"/><polygon class="cls-2" points="351.24 196.47 342.77 301.9 321.3 198.33 351.24 196.47"/><line class="cls-1" x1="283.77" y1="197.9" x2="280.77" y2="267.9"/><polygon class="cls-2" points="291.26 198.22 280.77 267.9 276.28 197.58 291.26 198.22"/><line class="cls-1" x1="70.77" y1="181.9" x2="80.77" y2="303.9"/><polygon class="cls-2" points="85.72 180.67 80.77 303.9 55.82 183.12 85.72 180.67"/><polygon class="cls-1" points="372.27 153.9 218.77 153.9 218.77 0.4 153.77 0.4 153.77 153.9 0.27 153.9 0.27 218.9 153.77 218.9 153.77 372.4 218.77 372.4 218.77 218.9 372.27 218.9 372.27 153.9"/><path class="cls-3" d="M372.27,154.25h-.35l-153.15.09h-.45v-.45L218.38.4l.4.4-65,0,.37-.37-.05,153.5v.32h-.32L.27,154.17l.27-.27,0,65-.25-.25,153.5.05h.2v.2l-.05,153.5-.15-.15,65,0-.12.12.05-153.5v-.07h.07l153.5.05,0,0Zm0-.71v.35l0,65v0h0l-153.5.05.07-.07.05,153.5v.13h-.13l-65,0h-.15v-.15l-.05-153.5.2.2-153.5.05H0v-.25l0-65v-.27H.27l153.5-.05-.32.32L153.4.4V0h.38l65,0h.4V.4l.05,153.5-.45-.45Z"/></g></g></svg>