<svg xmlns="http://www.w3.org/2000/svg" viewBox="0 0 484.74 494.61"><defs><style>.cls-1{fill:#ebeef0;}.cls-2{fill:none;}</style></defs><title>polaroid</title><g id="Слой_2" data-name="Слой 2"><g id="polaroid"><path class="cls-1" d="M57.4,245.8c4.7,4.49,10.93,8.73,17.85,8.73a16.93,16.93,0,0,0,4.24-.55c5.22-1.34,8.72-3.56,11.08-6.6C80,248.68,67,247.3,57.4,245.8Z"/><path class="cls-1" d="M287.19,270.31a12.26,12.26,0,0,1-1.67,1.59c6.48,22.62-22.43,23.61-47.71,30-11,2.78-25.27,3.65-40,3.65-22.64,0-46.22-2.07-59.89-2.33-.91,0-1.86,0-2.84,0-19.26,0-52.91,3.22-72.85,3.22a84.49,84.49,0,0,1-10.9-.54c-9.34-1.3-10.74-8.53-10.32-14.28-.77-.12-1.45-.26-2.06-.41a12.89,12.89,0,0,1-2-.67c-.38,3.85-.1,8.5,2.25,12.41,1.64,2.71,5,6.14,11.6,7.07a87.06,87.06,0,0,0,11.47.58c10.18,0,23.95-.83,37.27-1.64,12.86-.77,26.16-1.58,35.58-1.58l2.77,0c5.17.1,11.73.46,19.33.87,12.45.68,26.56,1.45,40.64,1.45,17.57,0,31-1.23,41-3.77,4.36-1.11,8.89-2.06,13.28-3,16.32-3.44,31.73-6.69,36.83-17.43,2.32-4.88,2.19-10.64-.34-17.46A9.29,9.29,0,0,1,287.19,270.31Z"/><path class="cls-1" d="M39.63,287a16.87,16.87,0,0,0,2,.46c6.95,1.2,23.74,1.2,61,1.2,55.29,0,117.25-3.69,153-10.77,0,0-.06-.06-.08-.11a54.24,54.24,0,0,0-6.25-10.68c-.51-.67-1.07-1.3-1.62-2s-1.11-1.32-1.72-1.94a35.78,35.78,0,0,0-13.59-9,1.73,1.73,0,0,1-.25-.16c-4.63.39-9,.71-13,.71-5.48,0-10.06-.61-13.1-2.44A103.24,103.24,0,0,0,192.57,246q-6.74,4.06-13.06,8.78c-2.74,2-5.38-2.56-2.68-4.58,3.11-2.32,6.3-4.52,9.54-6.63-1.92-.73-3.88-1.46-5.86-2.17a125.45,125.45,0,0,0-13.72,9.87c-2.61,2.16-6.38-1.57-3.75-3.75,3.58-3,7.27-5.78,11.1-8.38-2.07-.72-4.12-1.42-6.11-2.09a125.12,125.12,0,0,0-15.82,10.69c-2.6,2.18-6.38-1.55-3.75-3.75a112,112,0,0,1,13-9.11l-4.9-1.58a62.46,62.46,0,0,0-18.07,11.35c-2.58,2.22-6.34-1.51-3.75-3.75a77.58,77.58,0,0,1,14.29-10l-3.13-1S118.78,215.18,106,215.18c-3.91,0-6.48,1.39-6.48,5,0,9.06.27,18.71-3.48,26.2-2.65,5.29-7.29,9.5-15.52,11.61a21,21,0,0,1-5.28.67c-10.54,0-19.38-7.9-24.7-14.07a59.18,59.18,0,0,1-5.37-7.19c-6.18,7.07-3.54,17.67-3.54,34.46,0,7.67-6,11.83-3.93,14.09A4,4,0,0,0,39.63,287Z"/><path class="cls-1" d="M283,260.14c-5.92-6-15.64-7.71-26.37-7.71-4.76,0-9.72.32-14.61.73a43.72,43.72,0,0,1,10.4,9.52c.51.64,1,1.29,1.5,2s.92,1.3,1.36,2a66,66,0,0,1,5.21,9.49,2.74,2.74,0,0,1,.16.73c11.88-2.67,20.14-5.76,23.25-9.29a5.31,5.31,0,0,0,1.24-2.26,4.84,4.84,0,0,0-1.41-4.42C283.54,260.59,283.26,260.38,283,260.14Z"/><path class="cls-2" d="M219.23,131.18l-5.35,18,25.86,7.67,5.38,17.41a34.49,34.49,0,0,0-11.46,12.38l-17.79-4.05-9.6-25.21-17.58,6.7,5.14,13.49-14.35-3.27-12.65-38.62L149,141.57l9.13,27.89-23.54-5.36-4.18,18.34,23.54,5.36L133.6,209l13.58,13,28.13-29.33,14.35,3.27-10.48,9.93,12.94,13.65L211.7,201l17.76,4a34.49,34.49,0,0,0,5,16.13l-12.39,13.36-26.63-4.29-3,18.57,14.25,2.29-10,10.8-39.77-8.36L153,271.93l28.72,6-16.41,17.7,13.79,12.79,16.41-17.7,8.19,28.19,18.06-5.25-11.34-39,10-10.8,3.36,14,18.29-4.38-6.29-26.23,12.4-13.38a34.49,34.49,0,0,0,16.45,3.76l5.38,17.41L253,276l14.59,11.87,9.11-11.2,4.34,14.06L254,321l14,12.55,19.59-21.86,7.13,23.07,6.49-2v-47l-2.12-.52-4.34-14.06,6.46,1.92V253.44L288,249.54l-5.38-17.41a34.5,34.5,0,0,0,11.46-12.38l7.06,1.61V202.06l-2.85-.65a34.49,34.49,0,0,0-5-16.13l7.84-8.45V129.18l-15.53,3.72,6.29,26.23-12.4,13.38a34.49,34.49,0,0,0-16.45-3.76l-5.38-17.41,17-20.92-7.17-5.83H255.24l-4.2,5.16-1.59-5.16H229.76l3.31,10.71Zm40,57.06a15.67,15.67,0,1,1-10.35,19.6A15.69,15.69,0,0,1,259.27,188.24Z"/><polygon class="cls-2" points="96.83 124.58 69.95 124.58 149.97 399.95 301.18 399.95 301.18 334.88 169.1 373.27 96.83 124.58"/><polygon class="cls-2" points="25.82 124.58 25.82 399.95 149.97 399.95 69.95 124.58 25.82 124.58"/><polygon class="cls-2" points="193.75 93.27 216.14 98.76 221.79 98.76 215.13 77.2 233.1 71.65 240.22 94.72 259.81 72.86 273.82 85.41 261.85 98.76 307.73 98.76 305.98 92.74 324.04 87.49 332.23 115.67 348.64 97.97 362.43 110.76 346.02 128.46 374.75 134.5 370.88 152.91 331.11 144.55 327 148.98 327 156.29 335.35 157.64 332.37 176.21 327 175.34 327 195.12 335.67 186.9 348.61 200.54 338.13 210.48 352.49 213.75 380.61 184.42 394.19 197.44 373.87 218.62 397.41 223.99 393.23 242.32 369.69 236.96 378.83 264.86 360.95 270.71 348.31 232.09 333.95 228.82 339.1 242.31 327 246.92 327 292.06 338.53 294.89 334.04 313.16 327 311.43 327 327.38 433.53 296.42 356.69 32 126.93 98.76 192.4 98.76 193.75 93.27"/><path class="cls-2" d="M267.58,124.58l7.17,5.83-17,20.92,5.38,17.41a34.49,34.49,0,0,1,16.45,3.76l12.4-13.38-6.29-26.23,15.53-3.72v-4.6Z"/><polygon class="cls-2" points="251.04 129.74 255.24 124.58 249.45 124.58 251.04 129.74"/><path class="cls-2" d="M268.52,218.19a15.67,15.67,0,1,0-19.6-10.35A15.69,15.69,0,0,0,268.52,218.19Z"/><polygon class="cls-2" points="294.72 271.14 299.06 285.2 301.18 285.72 301.18 273.06 294.72 271.14"/><path class="cls-2" d="M293.35,185.28a34.49,34.49,0,0,1,5,16.13l2.85.65V176.82Z"/><path class="cls-2" d="M294.13,219.75a34.5,34.5,0,0,1-11.46,12.38L288,249.54l13.14,3.9V221.35Z"/><path class="cls-2" d="M294.69,334.78l-7.13-23.07L268,333.57,254,321l27.12-30.26-4.34-14.06-9.11,11.2L253,276l17-20.92-5.38-17.41a34.49,34.49,0,0,1-16.45-3.76l-12.4,13.38,6.29,26.23-18.29,4.38-3.36-14-10,10.8,11.34,39-18.06,5.25-8.19-28.19-16.41,17.7-13.79-12.79L181.77,278l-28.72-6,3.87-18.41,39.77,8.36,10-10.8-14.25-2.29,3-18.57,26.63,4.29,12.39-13.36a34.49,34.49,0,0,1-5-16.13l-17.76-4-19.57,18.56-12.94-13.65,10.48-9.93-14.35-3.27L147.18,222,133.6,209l20.31-21.19-23.54-5.36,4.18-18.34,23.54,5.36L149,141.57l17.87-5.85,12.65,38.62,14.35,3.27-5.14-13.49,17.58-6.7,9.6,25.21,17.79,4.05a34.49,34.49,0,0,1,11.46-12.38l-5.38-17.41-25.86-7.67,5.35-18,13.84,4.11-3.31-10.71H96.83L169.1,373.27l132.08-38.38v-2.11Z"/><polygon class="cls-1" points="221.79 98.76 216.14 98.76 222.25 100.27 221.79 98.76"/><polygon class="cls-1" points="374.27 0 60.26 91.25 62.45 98.76 126.93 98.76 356.69 32 433.53 296.42 327 327.38 327 425.96 484.74 380.12 374.27 0"/><polygon class="cls-1" points="193.75 93.27 192.4 98.76 216.14 98.76 193.75 93.27"/><polygon class="cls-1" points="327 148.98 331.11 144.55 370.88 152.91 374.75 134.5 346.02 128.46 362.43 110.76 348.64 97.97 332.23 115.67 324.04 87.49 305.98 92.74 307.73 98.76 327 98.76 327 148.98"/><polygon class="cls-1" points="339.1 242.31 333.95 228.82 348.31 232.09 360.95 270.71 378.83 264.86 369.69 236.96 393.23 242.32 397.41 223.99 373.87 218.62 394.19 197.44 380.61 184.42 352.49 213.75 338.13 210.48 348.61 200.54 335.67 186.9 327 195.12 327 246.92 339.1 242.31"/><polygon class="cls-1" points="332.37 176.21 335.35 157.64 327 156.29 327 175.34 332.37 176.21"/><polygon class="cls-1" points="334.04 313.16 338.53 294.89 327 292.06 327 311.43 334.04 313.16"/><polygon class="cls-1" points="273.82 85.41 259.81 72.86 240.22 94.72 233.1 71.65 215.13 77.2 221.79 98.76 261.85 98.76 273.82 85.41"/><polygon class="cls-1" points="255.24 124.58 267.57 124.58 260.15 118.54 255.24 124.58"/><path class="cls-1" d="M307.73,98.76H221.79l.46,1.5-6.11-1.5H0V494.61H327V98.76Zm-6.54,234v67.18H25.82V124.58H255.24l4.92-6,7.42,6h33.61V332.77Z"/></g></g></svg>