<svg xmlns="http://www.w3.org/2000/svg" viewBox="0 0 479.86 512"><defs><style>.cls-1{opacity:0.5;}.cls-2{fill:#fff;}</style></defs><title>shoe</title><g id="Слой_2" data-name="Слой 2"><g id="Слой_4" data-name="Слой 4"><g class="cls-1"><path class="cls-2" d="M479.86,318.55l-17.34-31.23L395,324.78l-24.21-14,24.58-12.15-15.83-32-45.92,22.71-30-17.3a65.5,65.5,0,0,0,0-32.07l30-17.3,45.92,22.71,15.83-32L370.83,201.2l24.21-14,67.48,37.46,17.34-31.23-48.74-27.06,39.71-22.92L453,112.53l-39.71,22.92.94-55.74-35.72-.6-1.3,77.17-24.21,14,1.77-27.36-35.65-2.3-3.3,51.13-30,17.32a65.51,65.51,0,0,0-27.73-16V158.4L300.68,130l-19.81-29.72-22.81,15.21v-28L324.23,47.8,305.85,17.17l-47.8,28.68V0H222.33V45.85l-47.8-28.68L156.15,47.8l66.18,39.71v28l-22.81-15.21L179.7,130l42.63,28.42V193a65.51,65.51,0,0,0-27.73,16l-30-17.32-3.3-51.13-35.65,2.3,1.76,27.36-24.21-14-1.3-77.17-35.72.6.94,55.74L27.42,112.53,9.56,143.47l39.71,22.92L.53,193.45l17.34,31.23,67.48-37.46,24.21,14L85,213.35l15.83,32,45.93-22.71,30,17.3a65.5,65.5,0,0,0,0,32.07l-30,17.3-45.93-22.71L85,298.65l24.58,12.15-24.21,14L17.87,287.32.53,318.55l48.74,27.06L9.56,368.53l17.86,30.93,39.71-22.92-.94,55.74,35.72.6,1.3-77.17,24.21-14-1.76,27.36,35.65,2.3,3.3-51.13,30-17.32a65.51,65.51,0,0,0,27.73,16V353.6L179.7,382l19.81,29.72,22.81-15.21v28L156.15,464.2l18.38,30.63,47.8-28.68V512h35.72V466.15l47.8,28.68,18.38-30.63-66.18-39.71v-28l22.81,15.21L300.68,382,258.05,353.6V319a65.51,65.51,0,0,0,27.73-16l30,17.32,3.3,51.13,35.65-2.3L353,341.73l24.21,14,1.3,77.17,35.72-.6-.94-55.74L453,399.47l17.86-30.93-39.71-22.92ZM240.19,285.77A29.77,29.77,0,1,1,270,256,29.8,29.8,0,0,1,240.19,285.77Z"/></g></g><g id="Слой_2-2" data-name="Слой 2"><path class="cls-2" d="M36.87,225.39c8.41,8,19.57,15.62,32,15.62a30.31,30.31,0,0,0,7.6-1c9.35-2.4,15.61-6.38,19.84-11.81C77.33,230.55,54,228.07,36.87,225.39Z"/><path class="cls-2" d="M448.29,269.27a22,22,0,0,1-3,2.85c11.61,40.5-40.15,42.27-85.41,53.76-19.61,5-45.24,6.54-71.56,6.54-40.54,0-82.76-3.7-107.22-4.16-1.63,0-3.33-.06-5.09-.06-34.49,0-94.73,5.77-130.42,5.77a151.28,151.28,0,0,1-19.51-1C9.36,330.69,6.85,317.74,7.6,307.44c-1.38-.22-2.6-.46-3.69-.73a23.08,23.08,0,0,1-3.66-1.21c-.67,6.89-.19,15.21,4,22.22,2.93,4.85,8.91,11,20.77,12.65a155.87,155.87,0,0,0,20.54,1c18.22,0,42.88-1.48,66.72-2.93,23-1.39,46.84-2.83,63.7-2.83q2.58,0,5,0c9.25.17,21,.83,34.61,1.56,22.29,1.21,47.55,2.59,72.76,2.59,31.46,0,55.48-2.21,73.38-6.76,7.81-2,15.92-3.69,23.77-5.35,29.21-6.16,56.81-12,65.94-31.21,4.15-8.74,3.91-19.06-.61-31.26A16.64,16.64,0,0,1,448.29,269.27Z"/><path class="cls-2" d="M5,299.18a30.21,30.21,0,0,0,3.64.83c12.44,2.15,42.51,2.15,109.16,2.15,99,0,209.93-6.61,273.85-19.29,0-.08-.11-.11-.14-.2a97.1,97.1,0,0,0-11.19-19.13c-.91-1.2-1.91-2.34-2.89-3.5s-2-2.36-3.07-3.47a64.06,64.06,0,0,0-24.34-16.18,3.09,3.09,0,0,1-.44-.28c-8.29.71-16.18,1.27-23.24,1.27-9.81,0-18-1.09-23.45-4.37-5.68-3.43-14.22-7.34-24.06-11.33Q266.81,233,255.51,241.4c-4.91,3.66-9.64-4.59-4.8-8.2,5.56-4.16,11.27-8.09,17.08-11.86-3.44-1.31-7-2.61-10.49-3.89a224.61,224.61,0,0,0-24.56,17.68c-4.67,3.87-11.43-2.81-6.71-6.71,6.41-5.31,13-10.34,19.88-15-3.71-1.29-7.38-2.54-10.94-3.74-9.76,5.91-19.55,11.79-28.33,19.14-4.66,3.9-11.41-2.77-6.71-6.71a200.52,200.52,0,0,1,23.33-16.31l-8.78-2.84c-12,4.64-22.51,11.84-32.36,20.33-4.61,4-11.36-2.71-6.71-6.71A138.9,138.9,0,0,1,201,198.69c-3.55-1.1-5.61-1.72-5.61-1.72s-48.62-26.39-71.46-26.39c-7,0-11.59,2.49-11.59,9,0,16.23.49,33.51-6.23,46.9-4.74,9.46-13.05,17-27.79,20.79a37.5,37.5,0,0,1-9.46,1.21c-18.86,0-34.7-14.14-44.21-25.19A106,106,0,0,1,15,210.41C4,223.07,8.7,242.06,8.7,272.11c0,13.73-10.69,21.18-7,25.22A7.22,7.22,0,0,0,5,299.18Z"/><path class="cls-2" d="M440.83,251.06c-10.61-10.79-28-13.8-47.21-13.8-8.52,0-17.4.58-26.16,1.3a78.28,78.28,0,0,1,18.62,17.05c.92,1.15,1.82,2.31,2.69,3.5s1.65,2.34,2.44,3.53a118.2,118.2,0,0,1,9.33,17,4.9,4.9,0,0,1,.29,1.31c21.28-4.78,36.06-10.32,41.63-16.64a9.51,9.51,0,0,0,2.22-4.05c.6-2.53-.11-5.18-2.52-7.92C441.75,251.86,441.26,251.5,440.83,251.06Z"/></g></g></svg>